<?xml version="1.0" encoding="UTF-8"?>
<!DOCTYPE svg PUBLIC "-//W3C//DTD SVG 1.1//EN" "http://www.w3.org/Graphics/SVG/1.1/DTD/svg11.dtd">
<!-- Creator: CorelDRAW -->
<svg xmlns="http://www.w3.org/2000/svg" xml:space="preserve" width="89.7466mm" height="49.9532mm" style="shape-rendering:geometricPrecision; text-rendering:geometricPrecision; image-rendering:optimizeQuality; fill-rule:evenodd; clip-rule:evenodd"
viewBox="0 0 89.7466 49.9532"
 xmlns:xlink="http://www.w3.org/1999/xlink">
 <defs>
  <style type="text/css">
   <![CDATA[
    .fil0 {fill:#F58634}
    .fil1 {fill:#1B68B1}
    .fil2 {fill:#1B68B1;fill-rule:nonzero}
   ]]>
  </style>
 </defs>
 <g id="Layer_x0020_1">
  <metadata id="CorelCorpID_0Corel-Layer"/>
  <g id="_21811304">
   <path id="_213975032" class="fil0" d="M81.5058 19.1296l-0.7123 0.006c-0.125,0.0012 -0.2538,0.0004 -0.3846,0.0012 -10.3131,0.0605 -38.8417,2.3979 -57.0596,6.4292 16.5014,-6.2142 34.0162,-10.3171 52.2362,-12.2159l-1.6386 3.6187 5.9511 -3.59 0.0002 -0.0002 4.7606 -2.8717 -1.3959 -1.4205c-1.3054,-1.3285 -2.7127,-2.7607 -3.934,-4.0036l-1.829 4.0393c-11.1884,1.3009 -22.1032,3.7539 -32.6724,6.7339 13.3906,-6.5208 27.8752,-11.4785 43.1113,-13.9814 -2.1403,5.7696 -4.2968,11.4627 -6.433,17.255z"/>
   <path id="_213974960" class="fil1" d="M78.2402 23.4189c0.5791,0 1.1559,0.0104 1.7341,0.0141l-2.4387 6.4772 -8.5085 0c-22.6215,0 -44.8529,1.4323 -67.2194,5.3571 24.1523,-7.3712 49.8216,-11.8484 76.4325,-11.8484z"/>
   <g>
    <g>
     <path id="_213974888" class="fil2" d="M17.856 38.8829l1.2901 0 0 1.9837 1.8595 -1.9837 1.626 0 -2.3417 2.5013 2.3417 2.5011c-0.5421,0 -1.084,0 -1.626,0l-0.5817 -0.6204 -1.2778 -1.3633 0 1.9837 -1.2901 0 0 -2.5011 0 -2.5013z"/>
     <polygon id="_213974816" class="fil2" points="24.2037,38.883 27.6389,38.883 27.6389,39.8586 25.4936,39.8586 25.4936,40.7895 27.6389,40.7895 27.6389,41.765 25.4936,41.765 25.4936,42.9098 27.6389,42.9098 27.6389,43.8852 24.2037,43.8852 "/>
     <path id="_75969392" class="fil2" d="M31.7555 41.1017c0.2698,0 0.4643,-0.0503 0.5808,-0.151 0.1179,-0.1006 0.1763,-0.2664 0.1763,-0.4963 0,-0.2275 -0.0584,-0.3911 -0.1763,-0.4895 -0.1165,-0.0983 -0.311,-0.1475 -0.5808,-0.1475l-0.5433 0 0 1.2843 0.5433 0zm-0.5433 0.8909l0 1.8926 -1.29 0 0 -5.0022 1.9704 0c0.6589,0 1.1426,0.1109 1.449,0.3318 0.3076,0.2206 0.4609,0.5706 0.4609,1.0486 0,0.3305 -0.08,0.6027 -0.2391,0.8142 -0.16,0.2128 -0.4013,0.3695 -0.7227,0.4689 0.1761,0.0411 0.335,0.1316 0.4746,0.2734 0.1396,0.1418 0.2803,0.3568 0.4232,0.6449l0.7009 1.4204c-0.4582,0 -0.9163,0 -1.3746,0l-0.6095 -1.2431c-0.1223,-0.2493 -0.247,-0.4208 -0.3739,-0.5123 -0.1258,-0.0914 -0.2939,-0.1372 -0.5044,-0.1372l-0.3648 0z"/>
     <polygon id="_74901240" class="fil2" points="41.4227,38.883 45.6457,38.883 45.6457,39.8586 44.1809,39.8586 44.1809,43.8852 42.8909,43.8852 42.8909,39.8586 41.4227,39.8586 "/>
     <path id="_21811568" class="fil2" d="M49.9111 42.9749l-2.0173 0 -0.3179 0.9103 -1.2969 0 1.8527 -5.0022 1.5381 0 1.8527 5.0022 -1.2968 0 -0.3146 -0.9103zm-1.6959 -0.9285l1.3712 0 -0.684 -1.99 -0.6872 1.99z"/>
     <path id="_21811616" class="fil2" d="M58.96 42.9749l-2.0173 0 -0.3179 0.9103 -1.2969 0 1.8527 -5.0022 1.5382 0 1.8526 5.0022 -1.2968 0 -0.3146 -0.9103zm-1.6959 -0.9285l1.3712 0 -0.6839 -1.99 -0.6873 1.99z"/>
     <path id="_21811712" class="fil2" d="M62.2022 38.883l2.1409 0c0.637,0 1.1253,0.1418 1.466,0.4243 0.3408,0.2825 0.5113,0.6851 0.5113,1.2077 0,0.5238 -0.1705,0.9275 -0.5113,1.2099 -0.3407,0.2826 -0.829,0.4244 -1.466,0.4244l-0.8509 0 0 1.7359 -1.29 0 0 -5.0022zm1.29 0.9344l0 1.3975 0.7137 0c0.2504,0 0.4437,-0.0606 0.5798,-0.183 0.1361,-0.1212 0.2047,-0.2939 0.2047,-0.5169 0,-0.2241 -0.0686,-0.3957 -0.2047,-0.5168 -0.1361,-0.1202 -0.3294,-0.1808 -0.5798,-0.1808l-0.7137 0z"/>
     <polygon id="_21811424" class="fil2" points="67.644,38.883 68.934,38.883 68.934,43.8852 67.644,43.8852 "/>
     <polygon id="_21809048" class="fil2" points="36.2366,38.883 39.672,38.883 39.672,39.8586 37.5266,39.8586 37.5266,40.7895 39.672,40.7895 39.672,41.765 37.5266,41.765 37.5266,42.9098 39.672,42.9098 39.672,43.8852 36.2366,43.8852 "/>
    </g>
    <g>
     <path id="_21811760" class="fil2" d="M17.858 47.7343l0 -1.6087 0.6074 0c0.1067,0 0.1884,0.0053 0.2449,0.0154 0.079,0.0131 0.1453,0.0381 0.1988,0.0749 0.0536,0.037 0.0967,0.0887 0.1293,0.155 0.0325,0.0663 0.0487,0.1393 0.0487,0.2191 0,0.1363 -0.0435,0.252 -0.1308,0.3463 -0.0869,0.0948 -0.2445,0.1419 -0.4721,0.1419l-0.4127 0 0 0.6561 -0.2135 0zm0.2135 -0.8448l0.4156 0c0.1378,0 0.2352,-0.0254 0.2932,-0.0767 0.0577,-0.0514 0.0865,-0.1233 0.0865,-0.2165 0,-0.067 -0.0168,-0.1247 -0.0509,-0.1726 -0.0341,-0.048 -0.079,-0.0797 -0.1344,-0.0951 -0.036,-0.0094 -0.1022,-0.0142 -0.1985,-0.0142l-0.4115 0 0 0.5751zm1.9687 0.8448l0 -1.4199 -0.5302 0 0 -0.1888 1.2739 0 0 0.1888 -0.5303 0 0 1.4199 -0.2134 0zm3.9492 0l0 -1.6087 1.1616 0 0 0.1888 -0.9482 0 0 0.4942 0.8874 0 0 0.1887 -0.8874 0 0 0.5482 0.9863 0 0 0.1888 -1.1997 0zm1.7732 0l0 -1.6087 0.713 0c0.1433,0 0.2523,0.0146 0.3269,0.0435 0.0745,0.0288 0.134,0.0797 0.1786,0.1527 0.0445,0.0731 0.0666,0.1539 0.0666,0.2423 0,0.1142 -0.037,0.2104 -0.1108,0.2887 -0.0738,0.0783 -0.1876,0.1277 -0.3419,0.1491 0.0566,0.0269 0.0992,0.0539 0.1285,0.0801 0.0621,0.0569 0.1209,0.1284 0.1759,0.2142l0.2783 0.4381 -0.2659 0 -0.2127 -0.3348c-0.0618,-0.097 -0.1131,-0.1707 -0.1531,-0.2221 -0.0405,-0.0513 -0.0765,-0.0868 -0.1082,-0.1074 -0.0315,-0.0202 -0.0641,-0.0345 -0.0971,-0.0427 -0.0239,-0.0048 -0.0632,-0.0075 -0.1183,-0.0075l-0.2464 0 0 0.7145 -0.2134 0zm0.2134 -0.8987l0.4569 0c0.0973,0 0.173,-0.0101 0.2277,-0.0303 0.0546,-0.0199 0.0962,-0.0521 0.1242,-0.0966 0.0285,-0.0442 0.0428,-0.0922 0.0428,-0.1442 0,-0.076 -0.0274,-0.1389 -0.0824,-0.188 -0.0551,-0.049 -0.142,-0.0734 -0.2607,-0.0734l-0.5085 0 0 0.5325zm1.6838 0.8987l0 -1.6087 1.1615 0 0 0.1888 -0.9481 0 0 0.4942 0.8874 0 0 0.1887 -0.8874 0 0 0.5482 0.9863 0 0 0.1888 -1.1997 0zm2.1776 0l0 -1.4199 -0.5302 0 0 -0.1888 1.2739 0 0 0.1888 -0.5303 0 0 1.4199 -0.2134 0zm0.8951 0l0.6172 -1.6087 0.234 0 0.6549 1.6087 -0.2422 0 -0.1862 -0.4876 -0.6774 0 -0.1744 0.4876 -0.2259 0zm0.4629 -0.6605l0.5482 0 -0.1678 -0.446c-0.0505,-0.1356 -0.0887,-0.2475 -0.1153,-0.3359 -0.0221,0.1049 -0.0517,0.2078 -0.0888,0.3097l-0.1763 0.4722zm2.0362 0.6605l0.6172 -1.6087 0.234 0 0.6549 1.6087 -0.2422 0 -0.1862 -0.4876 -0.6774 0 -0.1744 0.4876 -0.2259 0zm0.4629 -0.6605l0.5482 0 -0.1678 -0.446c-0.0505,-0.1356 -0.0887,-0.2475 -0.1153,-0.3359 -0.0221,0.1049 -0.0517,0.2078 -0.0888,0.3097l-0.1763 0.4722zm1.4867 0.6605l0 -1.6087 0.6074 0c0.1067,0 0.1884,0.0053 0.2449,0.0154 0.079,0.0131 0.1453,0.0381 0.1988,0.0749 0.0536,0.037 0.0966,0.0887 0.1293,0.155 0.0325,0.0663 0.0486,0.1393 0.0486,0.2191 0,0.1363 -0.0434,0.252 -0.1307,0.3463 -0.0869,0.0948 -0.2445,0.1419 -0.4722,0.1419l-0.4126 0 0 0.6561 -0.2135 0zm0.2135 -0.8448l0.4156 0c0.1378,0 0.2352,-0.0254 0.2932,-0.0767 0.0577,-0.0514 0.0865,-0.1233 0.0865,-0.2165 0,-0.067 -0.0168,-0.1247 -0.0509,-0.1726 -0.0341,-0.048 -0.079,-0.0797 -0.1344,-0.0951 -0.036,-0.0094 -0.1022,-0.0142 -0.1985,-0.0142l-0.4115 0 0 0.5751zm1.5957 0.8448l0 -1.6087 0.2135 0 0 1.6087 -0.2135 0zm1.8726 0l0 -1.6087 0.2135 0 0 1.6087 -0.2135 0zm0.8607 0l0 -1.6087 0.2187 0 0.844 1.2627 0 -1.2627 0.2044 0 0 1.6087 -0.2186 0 -0.844 -1.2627 0 1.2627 -0.2045 0zm1.8994 0l0 -1.6087 0.5542 0c0.1251,0 0.2206,0.0075 0.2865,0.0229 0.0921,0.0213 0.1707,0.0599 0.2359,0.1153 0.085,0.0719 0.1482,0.1633 0.1902,0.2749 0.0423,0.1116 0.0633,0.2392 0.0633,0.3826 0,0.1221 -0.0143,0.2303 -0.0427,0.3247 -0.0285,0.0944 -0.0652,0.1726 -0.1097,0.2344 -0.0449,0.0618 -0.0936,0.1105 -0.1468,0.1457 -0.0528,0.0356 -0.1168,0.0625 -0.1917,0.0809 -0.0753,0.0183 -0.1614,0.0273 -0.2588,0.0273l-0.5804 0zm0.2134 -0.1888l0.3431 0c0.1059,0 0.1891,-0.0097 0.2494,-0.0295 0.0603,-0.0199 0.1082,-0.0476 0.1441,-0.0836 0.0502,-0.0505 0.0895,-0.1186 0.1176,-0.204 0.0281,-0.0854 0.0423,-0.1887 0.0423,-0.3104 0,-0.1685 -0.0277,-0.2981 -0.0827,-0.3887 -0.0551,-0.0906 -0.1221,-0.1513 -0.2012,-0.182 -0.0569,-0.0221 -0.1486,-0.0329 -0.2751,-0.0329l-0.3375 0 0 1.2311zm1.6186 -0.5942c0,-0.2666 0.0719,-0.4756 0.2153,-0.6264 0.1435,-0.151 0.3284,-0.2262 0.5554,-0.2262 0.1486,0 0.2823,0.0356 0.4017,0.1063 0.1191,0.0708 0.2101,0.1696 0.2726,0.2966 0.0625,0.1265 0.094,0.2703 0.094,0.431 0,0.1629 -0.0329,0.3089 -0.0988,0.4373 -0.0659,0.1289 -0.1592,0.2262 -0.2797,0.2921 -0.121,0.0663 -0.2513,0.0992 -0.391,0.0992 -0.1516,0 -0.2868,-0.0367 -0.4063,-0.1097 -0.119,-0.073 -0.2097,-0.1726 -0.2711,-0.2992 -0.0614,-0.1262 -0.0921,-0.2598 -0.0921,-0.401zm0.2202 0.0037c0,0.1936 0.052,0.346 0.1561,0.4573 0.1041,0.1112 0.2348,0.167 0.3921,0.167 0.1602,0 0.2917,-0.0562 0.3954,-0.1685 0.1034,-0.1124 0.1551,-0.2719 0.1551,-0.4786 0,-0.1307 -0.0221,-0.2449 -0.0664,-0.3422 -0.0441,-0.0974 -0.1089,-0.1731 -0.1939,-0.2266 -0.0854,-0.0535 -0.1809,-0.0805 -0.2868,-0.0805 -0.1505,0 -0.2801,0.0517 -0.3887,0.155 -0.1086,0.1034 -0.1629,0.2756 -0.1629,0.5171zm1.8649 0.7793l0 -1.6087 0.2187 0 0.8441 1.2627 0 -1.2627 0.2044 0 0 1.6087 -0.2187 0 -0.844 -1.2627 0 1.2627 -0.2045 0zm1.9039 0l0 -1.6087 1.1616 0 0 0.1888 -0.9481 0 0 0.4942 0.8874 0 0 0.1887 -0.8874 0 0 0.5482 0.9863 0 0 0.1888 -1.1998 0zm1.6991 -0.5168l0.2 -0.018c0.0094,0.0809 0.0315,0.1472 0.0663,0.1993 0.0348,0.0516 0.0887,0.0936 0.1618,0.1258 0.073,0.0318 0.1554,0.0479 0.2468,0.0479 0.0812,0 0.1527,-0.012 0.2149,-0.0363 0.0621,-0.0244 0.1082,-0.0577 0.1385,-0.1 0.0304,-0.0423 0.0457,-0.0883 0.0457,-0.1378 0,-0.0502 -0.0146,-0.094 -0.0438,-0.1318 -0.0292,-0.0374 -0.0775,-0.0689 -0.1449,-0.0947 -0.0431,-0.0165 -0.1385,-0.0427 -0.2865,-0.0783 -0.1479,-0.0355 -0.2513,-0.0689 -0.3104,-0.1004 -0.0767,-0.0404 -0.1337,-0.0906 -0.1712,-0.1501 -0.0377,-0.0596 -0.0565,-0.1266 -0.0565,-0.2003 0,-0.0816 0.0232,-0.1577 0.0693,-0.2281 0.0461,-0.0707 0.1131,-0.1243 0.2018,-0.161 0.0884,-0.0367 0.1869,-0.055 0.2951,-0.055 0.1191,0 0.2243,0.0191 0.3153,0.0576 0.091,0.0382 0.161,0.0947 0.2101,0.1697 0.049,0.0744 0.0752,0.1591 0.079,0.2535l-0.2045 0.0157c-0.0108,-0.1015 -0.0479,-0.1783 -0.1112,-0.2299 -0.0633,-0.0521 -0.1569,-0.0779 -0.2804,-0.0779 -0.1289,0 -0.2228,0.0236 -0.2816,0.0708 -0.0589,0.0471 -0.0884,0.104 -0.0884,0.1707 0,0.0577 0.021,0.1052 0.0625,0.1427 0.0412,0.0371 0.1479,0.0756 0.3209,0.1145 0.173,0.0394 0.2917,0.0734 0.3561,0.1027 0.0933,0.043 0.1625,0.0973 0.2071,0.1636 0.0446,0.0659 0.0667,0.1419 0.0667,0.228 0,0.0858 -0.0244,0.1659 -0.0734,0.2416 -0.0491,0.0756 -0.1191,0.1344 -0.2108,0.1763 -0.0918,0.042 -0.1947,0.0629 -0.3097,0.0629 -0.1453,0 -0.267,-0.0213 -0.3651,-0.0636 -0.0985,-0.0423 -0.1753,-0.106 -0.2311,-0.1913 -0.0561,-0.085 -0.0853,-0.1813 -0.0884,-0.2888zm1.8789 0.5168l0 -1.6087 0.2134 0 0 1.6087 -0.2134 0zm0.6865 0l0.6171 -1.6087 0.2341 0 0.6549 1.6087 -0.2423 0 -0.1861 -0.4876 -0.6774 0 -0.1745 0.4876 -0.2258 0zm0.4628 -0.6605l0.5482 0 -0.1677 -0.446c-0.0506,-0.1356 -0.0887,-0.2475 -0.1153,-0.3359 -0.0221,0.1049 -0.0517,0.2078 -0.0888,0.3097l-0.1764 0.4722zm2.6894 1.1323c-0.1086,-0.1374 -0.2007,-0.2981 -0.276,-0.4823 -0.0753,-0.1842 -0.1127,-0.3752 -0.1127,-0.5725 0,-0.1741 0.028,-0.3408 0.0842,-0.5 0.0659,-0.1849 0.1674,-0.3691 0.3045,-0.5526l0.1415 0c-0.0884,0.152 -0.1472,0.2606 -0.1756,0.3257 -0.0446,0.1007 -0.0798,0.206 -0.1053,0.3157 -0.0314,0.1367 -0.0471,0.2741 -0.0471,0.4123 0,0.3516 0.1093,0.7028 0.328,1.0537l-0.1415 0zm0.67 -0.4718l0 -1.6087 0.6073 0c0.1068,0 0.1884,0.0053 0.245,0.0154 0.0789,0.0131 0.1453,0.0381 0.1988,0.0749 0.0535,0.037 0.0966,0.0887 0.1292,0.155 0.0325,0.0663 0.0487,0.1393 0.0487,0.2191 0,0.1363 -0.0435,0.252 -0.1307,0.3463 -0.0869,0.0948 -0.2445,0.1419 -0.4722,0.1419l-0.4127 0 0 0.6561 -0.2134 0zm0.2134 -0.8448l0.4157 0c0.1377,0 0.2351,-0.0254 0.2932,-0.0767 0.0576,-0.0514 0.0864,-0.1233 0.0864,-0.2165 0,-0.067 -0.0168,-0.1247 -0.0508,-0.1726 -0.0342,-0.048 -0.0791,-0.0797 -0.1345,-0.0951 -0.036,-0.0094 -0.1022,-0.0142 -0.1985,-0.0142l-0.4115 0 0 0.5751zm1.5643 0.8448l0 -1.6087 1.1616 0 0 0.1888 -0.9481 0 0 0.4942 0.8874 0 0 0.1887 -0.8874 0 0 0.5482 0.9862 0 0 0.1888 -1.1997 0zm1.7732 0l0 -1.6087 0.713 0c0.1434,0 0.2524,0.0146 0.3269,0.0435 0.0745,0.0288 0.134,0.0797 0.1786,0.1527 0.0445,0.0731 0.0667,0.1539 0.0667,0.2423 0,0.1142 -0.0371,0.2104 -0.1108,0.2887 -0.0738,0.0783 -0.1877,0.1277 -0.3419,0.1491 0.0565,0.0269 0.0992,0.0539 0.1284,0.0801 0.0622,0.0569 0.121,0.1284 0.176,0.2142l0.2782 0.4381 -0.2659 0 -0.2126 -0.3348c-0.0618,-0.097 -0.1131,-0.1707 -0.1532,-0.2221 -0.0405,-0.0513 -0.0764,-0.0868 -0.1082,-0.1074 -0.0315,-0.0202 -0.064,-0.0345 -0.097,-0.0427 -0.0239,-0.0048 -0.0633,-0.0075 -0.1183,-0.0075l-0.2464 0 0 0.7145 -0.2135 0zm0.2135 -0.8987l0.4568 0c0.0973,0 0.173,-0.0101 0.2277,-0.0303 0.0546,-0.0199 0.0962,-0.0521 0.1243,-0.0966 0.0284,-0.0442 0.0427,-0.0922 0.0427,-0.1442 0,-0.076 -0.0274,-0.1389 -0.0824,-0.188 -0.055,-0.049 -0.1419,-0.0734 -0.2606,-0.0734l-0.5085 0 0 0.5325zm1.6095 0.3819l0.2 -0.018c0.0094,0.0809 0.0315,0.1472 0.0663,0.1993 0.0348,0.0516 0.0887,0.0936 0.1618,0.1258 0.073,0.0318 0.1554,0.0479 0.2467,0.0479 0.0813,0 0.1528,-0.012 0.215,-0.0363 0.0621,-0.0244 0.1082,-0.0577 0.1385,-0.1 0.0303,-0.0423 0.0457,-0.0883 0.0457,-0.1378 0,-0.0502 -0.0146,-0.094 -0.0438,-0.1318 -0.0292,-0.0374 -0.0775,-0.0689 -0.145,-0.0947 -0.043,-0.0165 -0.1385,-0.0427 -0.2864,-0.0783 -0.1479,-0.0355 -0.2513,-0.0689 -0.3104,-0.1004 -0.0768,-0.0404 -0.1337,-0.0906 -0.1712,-0.1501 -0.0378,-0.0596 -0.0565,-0.1266 -0.0565,-0.2003 0,-0.0816 0.0232,-0.1577 0.0693,-0.2281 0.046,-0.0707 0.1131,-0.1243 0.2018,-0.161 0.0884,-0.0367 0.1869,-0.055 0.2951,-0.055 0.1191,0 0.2243,0.0191 0.3153,0.0576 0.091,0.0382 0.161,0.0947 0.2101,0.1697 0.049,0.0744 0.0752,0.1591 0.079,0.2535l-0.2045 0.0157c-0.0108,-0.1015 -0.0479,-0.1783 -0.1112,-0.2299 -0.0633,-0.0521 -0.1569,-0.0779 -0.2805,-0.0779 -0.1288,0 -0.2228,0.0236 -0.2816,0.0708 -0.0588,0.0471 -0.0884,0.104 -0.0884,0.1707 0,0.0577 0.0211,0.1052 0.0626,0.1427 0.0412,0.0371 0.1479,0.0756 0.3209,0.1145 0.173,0.0394 0.2917,0.0734 0.3561,0.1027 0.0933,0.043 0.1625,0.0973 0.2071,0.1636 0.0446,0.0659 0.0667,0.1419 0.0667,0.228 0,0.0858 -0.0244,0.1659 -0.0734,0.2416 -0.0491,0.0756 -0.1191,0.1344 -0.2109,0.1763 -0.0917,0.042 -0.1947,0.0629 -0.3097,0.0629 -0.1453,0 -0.2669,-0.0213 -0.365,-0.0636 -0.0985,-0.0423 -0.1753,-0.106 -0.2311,-0.1913 -0.0562,-0.085 -0.0853,-0.1813 -0.0884,-0.2888zm1.8474 0.5168l0 -1.6087 1.1616 0 0 0.1888 -0.9481 0 0 0.4942 0.8874 0 0 0.1887 -0.8874 0 0 0.5482 0.9863 0 0 0.1888 -1.1998 0zm1.7733 0l0 -1.6087 0.7129 0c0.1434,0 0.2524,0.0146 0.3269,0.0435 0.0745,0.0288 0.1341,0.0797 0.1786,0.1527 0.0446,0.0731 0.0667,0.1539 0.0667,0.2423 0,0.1142 -0.0371,0.2104 -0.1108,0.2887 -0.0738,0.0783 -0.1876,0.1277 -0.3419,0.1491 0.0565,0.0269 0.0992,0.0539 0.1284,0.0801 0.0622,0.0569 0.121,0.1284 0.176,0.2142l0.2782 0.4381 -0.2658 0 -0.2127 -0.3348c-0.0618,-0.097 -0.1131,-0.1707 -0.1532,-0.2221 -0.0404,-0.0513 -0.0764,-0.0868 -0.1082,-0.1074 -0.0315,-0.0202 -0.064,-0.0345 -0.097,-0.0427 -0.0239,-0.0048 -0.0633,-0.0075 -0.1183,-0.0075l-0.2464 0 0 0.7145 -0.2134 0zm0.2134 -0.8987l0.4568 0c0.0974,0 0.173,-0.0101 0.2277,-0.0303 0.0546,-0.0199 0.0963,-0.0521 0.1243,-0.0966 0.0284,-0.0442 0.0427,-0.0922 0.0427,-0.1442 0,-0.076 -0.0274,-0.1389 -0.0824,-0.188 -0.055,-0.049 -0.1419,-0.0734 -0.2606,-0.0734l-0.5085 0 0 0.5325zm1.6141 0.1157c0,-0.2666 0.0719,-0.4756 0.2153,-0.6264 0.1434,-0.151 0.3283,-0.2262 0.5553,-0.2262 0.1487,0 0.2824,0.0356 0.4018,0.1063 0.1191,0.0708 0.2101,0.1696 0.2726,0.2966 0.0625,0.1265 0.094,0.2703 0.094,0.431 0,0.1629 -0.0329,0.3089 -0.0988,0.4373 -0.0659,0.1289 -0.1592,0.2262 -0.2797,0.2921 -0.121,0.0663 -0.2513,0.0992 -0.391,0.0992 -0.1517,0 -0.2869,-0.0367 -0.4063,-0.1097 -0.1191,-0.073 -0.2097,-0.1726 -0.2712,-0.2992 -0.0613,-0.1262 -0.092,-0.2598 -0.092,-0.401zm0.2201 0.0037c0,0.1936 0.0521,0.346 0.1562,0.4573 0.1041,0.1112 0.2348,0.167 0.392,0.167 0.1603,0 0.2918,-0.0562 0.3955,-0.1685 0.1034,-0.1124 0.1551,-0.2719 0.1551,-0.4786 0,-0.1307 -0.0221,-0.2449 -0.0663,-0.3422 -0.0442,-0.0974 -0.109,-0.1731 -0.194,-0.2266 -0.0854,-0.0535 -0.1809,-0.0805 -0.2869,-0.0805 -0.1505,0 -0.2801,0.0517 -0.3886,0.155 -0.1087,0.1034 -0.163,0.2756 -0.163,0.5171zm1.9729 1.2511l-0.1415 0c0.2186,-0.3509 0.3279,-0.7021 0.3279,-1.0537 0,-0.1374 -0.0157,-0.2738 -0.0471,-0.4089 -0.0247,-0.1097 -0.0596,-0.215 -0.1041,-0.3161 -0.0285,-0.0655 -0.0876,-0.1752 -0.1767,-0.3287l0.1415 0c0.137,0.1835 0.2385,0.3677 0.3044,0.5526 0.0562,0.1592 0.0843,0.3259 0.0843,0.5 0,0.1973 -0.0379,0.3883 -0.1135,0.5725 -0.0753,0.1842 -0.167,0.3449 -0.2752,0.4823z"/>
     <polygon id="_21811400" class="fil2" points="22.207,46.12 22.424,46.12 22.424,46.798 23.1437,46.12 23.4231,46.12 22.6271,46.8675 23.4799,47.7237 23.1942,47.7237 22.424,46.9515 22.424,47.7237 22.207,47.7237 "/>
    </g>
   </g>
  </g>
 </g>
</svg>
